<svg xmlns="http://www.w3.org/2000/svg" viewBox="0 0 995.3 995.31"><defs><clipPath id="a"><path fill="none" d="M-.005 498.728 496.607.032l498.695 496.612-496.61 498.696z"/></clipPath><clipPath id="b"><path fill="none" d="M7.702 410.446 584.846 7.674 987.618 584.82 410.473 987.59z"/></clipPath><clipPath id="c"><path fill="none" d="m28.353 332.047 634.86-303.765 303.765 634.86-634.86 303.765z"/></clipPath><clipPath id="d"><path fill="none" d="m71.559 240.54 683.21-168.952 168.95 683.21L240.51 923.75z"/></clipPath></defs><path fill="#f7e346" d="M.005 498.728 496.617.032l498.695 496.612-496.61 498.696z"/><g clip-path="url(#a)"><path fill="#a49731" d="M3.525 438.42 556.831 3.48l434.94 553.307-553.306 434.94z"/></g><path fill="#428edb" d="M7.698 410.454 584.842 7.683l402.771 577.144L410.47 987.598z"/><g clip-path="url(#b)"><path fill="#2b5f92" d="M18.999 361.464 633.832 18.97l342.492 614.833-614.832 342.492z"/></g><path fill="#96c93d" d="m28.366 332.052 634.86-303.765 303.765 634.86-634.86 303.765z"/><g clip-path="url(#c)"><path fill="#6c983f" d="M58.757 263.068 732.26 58.827 936.5 732.33 262.999 936.57z"/></g><path fill="#fd4f57" d="m71.566 240.537 683.21-168.95 168.951 683.21-683.21 168.95z"/><g clip-path="url(#d)"><path fill="#b0363c" d="m129.781 162.492 703.026-32.785 32.785 703.026-703.026 32.785z"/></g><path fill="#3d3d3d" d="M145.76 145.76h703.79v703.79H145.76z"/><path fill="#474747" d="M164.61 164.6H830.7v666.09H164.61z"/><g fill-rule="evenodd"><path fill="#333" d="M554.45 462.32c-54.39 42.13-69.23 57.22-164.35 127.6l-9.62-4.84c51.6-41.7 127.58-102.62 179.14-144.26 19.25-15.28 38.69-39.11 57.7-54.91zm-21.78 188.76c3.46 1.72 6.25 2.6 9.62 4.3-26.03 23.12-53.76 49.25-78.96 73.61-4.89 2.3-9.33 1.79-13.32-1.54l18.45-19.47a4330 4330 0 0 0 57.39-54.82c3.2-2.4 3.12-3.72 6.83-2.08Zm113.65 42.55c3.72-2.31 5.66-4.12 7.07-7.65 19.87-126.62 40.99-252.96 63.35-379.06 5.09-25.32 6.08-21.76 6.34-33.79 11.43 1.77 16.18 8.46 14.25 20.06-5.3 32.53-11.29 64.91-17.95 97.14-15.41 94.75-30.99 189.46-47.26 284.06-1.37 10.44-2.15 17.21-4.47 21.09-3.68 4.52-8.43 6.1-14.25 4.75-4.83-1.33-3.78-1.1-9.68-3.34l-3.21-1.33s3.99-.95 5.82-1.93Z"/><path fill="#999" d="M532.67 651.09c-1.23-.14-2.48-.35-3.59.45a2009 2009 0 0 0-62.9 60.65c-.13-.95.02-1.84.45-2.7 3.29-4.79 5.89-8.57 9.18-13.36.65-1.63.54-3.07.44-4.09-2.38-25.55-10.05-49.46-21.75-72.41-.25-.48.25-1.21 1.35-.9 25.87 10.36 51.48 21.15 76.82 32.35Z"/><path fill="#ccc" d="M559.63 440.83a8537 8537 0 0 1-181.95 146.46c-36.5-14.84-72.96-29.8-109.37-44.87-14.08-5.83-14.03-18.54-1.6-27.01-6.74 8.54-5.54 15.88 3.59 22.01 12.49 5.3 106.41 44.25 106.41 44.25s-.76-3.03 182.91-140.84Z"/><path fill="#b2b2b2" d="M636.9 687.93c13.94 4.98 13.43 1.5 19.39-4.08-.51 3.96-.95 8.3-5.99 11.12-3.46 2-6.59 1.93-9.81.6a1820 1820 0 0 1-107.82-44.48c-25.34-11.2-50.95-21.98-76.82-32.35l-1.35.9c12.64 23.62 19.98 48.77 22.01 75.48-3.29 4.79-6.59 9.58-9.88 14.38q-.645 1.275-.45 2.7l-16.17 15.27c-4.06-.01-6.31-2.11-6.74-6.29-.59-33.73-.6-67.46-.02-101.19 0-.41.01-.81.02-1.24.15-5.07 5.26-6.52 10.33-4.94q91.845 36.675 183.3 74.13Z"/><path fill="#ccc" d="M719.64 267.93c5 3.98 4.23 10.57 3.28 16.17-22.63 132.82-44.56 266.32-66.53 399.2-.21 1.24-.76 4.15-2.42 5.65-3.77 3-7.17 2.48-17.06-1.01 1.43-3.37 2.48-6.96 3.14-10.78 25.34-129.41 51.25-258.65 77.72-387.71 2.33-13.65 2.13-9.71 1.87-21.5Z"/><path fill="#f2f2f2" d="M719.64 267.93c.92 10.6 1.05 5.89-1.87 21.5-26.47 129.06-52.38 258.3-77.72 387.71-.66 3.82-1.71 7.41-3.14 10.78q-91.455-37.455-183.3-74.13c-5.08-1.58-8.52.07-10.33 4.94-.6 34.14-.6 68.29 0 102.43.43 4.18 2.68 6.28 6.74 6.29-1.12 1.15-3.78 1.07-3.78 1.07s-11.92-.69-13.36-3.54c-.37-.71-.38-1.46-.39-2.08-.18-36.3-.61-72.39-1.29-108.29-.02-.87 0-1.72.35-3.24s1.36-3.46 2.75-5.22a11611 11611 0 0 0 159.04-191.39 1343 1343 0 0 1-33.69 26.06C402.44 558.78 376.74 581.66 376.74 581.66s-71.9-29.63-106.41-44.25c-9.13-6.13-10.33-13.47-3.59-22.01a50628 50628 0 0 0 429.49-246.64c5.28-3.26 10.97-4.46 17.07-3.59 1.31.13 4.11.58 6.36 2.76Z"/></g></svg>